<svg width="24" height="24" viewBox="0 0 24 24" fill="none" xmlns="http://www.w3.org/2000/svg">
<path d="M10.459 3.33325H3.16732C2.61478 3.33325 2.08488 3.56153 1.69418 3.96786C1.30348 4.37418 1.08398 4.92528 1.08398 5.49992V20.6666C1.08398 21.2412 1.30348 21.7923 1.69418 22.1987C2.08488 22.605 2.61478 22.8333 3.16732 22.8333H17.7507C18.3032 22.8333 18.8331 22.605 19.2238 22.1987C19.6145 21.7923 19.834 21.2412 19.834 20.6666V13.0833M18.2715 1.70825C18.6859 1.27728 19.2479 1.03516 19.834 1.03516C20.42 1.03516 20.9821 1.27728 21.3965 1.70825C21.8109 2.13923 22.0437 2.72376 22.0437 3.33325C22.0437 3.94275 21.8109 4.52728 21.3965 4.95825L11.5007 15.2499L7.33398 16.3333L8.37565 11.9999L18.2715 1.70825Z" stroke="white" stroke-width="2" stroke-linecap="round" stroke-linejoin="round"/>
</svg>
