<svg width="34" height="40" viewBox="0 0 34 40" fill="none" xmlns="http://www.w3.org/2000/svg">
<path d="M24.166 5.66732H27.7493C28.6997 5.66732 29.6111 6.04485 30.2831 6.71685C30.9552 7.38886 31.3327 8.30029 31.3327 9.25065V34.334C31.3327 35.2843 30.9552 36.1958 30.2831 36.8678C29.6111 37.5398 28.6997 37.9173 27.7493 37.9173H6.24935C5.29899 37.9173 4.38755 37.5398 3.71555 36.8678C3.04354 36.1958 2.66602 35.2843 2.66602 34.334V9.25065C2.66602 8.30029 3.04354 7.38886 3.71555 6.71685C4.38755 6.04485 5.29899 5.66732 6.24935 5.66732H9.83268M11.6243 2.08398H22.3743C23.3639 2.08398 24.166 2.88614 24.166 3.87565V7.45898C24.166 8.44849 23.3639 9.25065 22.3743 9.25065H11.6243C10.6348 9.25065 9.83268 8.44849 9.83268 7.45898V3.87565C9.83268 2.88614 10.6348 2.08398 11.6243 2.08398Z" stroke="white" stroke-width="4" stroke-linecap="round" stroke-linejoin="round"/>
</svg>
