<svg width="32" height="35" viewBox="0 0 32 35" fill="none" xmlns="http://www.w3.org/2000/svg">
<path d="M7.17205 2.1875V4.375H3.83114C1.98668 4.375 0.490234 5.84473 0.490234 7.65625V10.9375H31.6721V7.65625C31.6721 5.84473 30.1756 4.375 28.3311 4.375H24.9902V2.1875C24.9902 0.977539 23.9949 0 22.763 0C21.531 0 20.5357 0.977539 20.5357 2.1875V4.375H11.6266V2.1875C11.6266 0.977539 10.6313 0 9.39933 0C8.16737 0 7.17205 0.977539 7.17205 2.1875ZM31.6721 13.125H0.490234V31.7188C0.490234 33.5303 1.98668 35 3.83114 35H28.3311C30.1756 35 31.6721 33.5303 31.6721 31.7188V13.125Z" fill="#FAFAFA"/>
</svg>
