<svg width="32" height="35" viewBox="0 0 32 35" fill="none" xmlns="http://www.w3.org/2000/svg">
<path d="M6.68182 2.1875V4.375H3.34091C1.49645 4.375 0 5.84473 0 7.65625V10.9375H31.1818V7.65625C31.1818 5.84473 29.6854 4.375 27.8409 4.375H24.5V2.1875C24.5 0.977539 23.5047 0 22.2727 0C21.0408 0 20.0455 0.977539 20.0455 2.1875V4.375H11.1364V2.1875C11.1364 0.977539 10.1411 0 8.90909 0C7.67713 0 6.68182 0.977539 6.68182 2.1875ZM31.1818 13.125H0V31.7188C0 33.5303 1.49645 35 3.34091 35H27.8409C29.6854 35 31.1818 33.5303 31.1818 31.7188V13.125Z" fill="#1583EB"/>
</svg>
