<svg width="30" height="30" viewBox="0 0 30 30" fill="none" xmlns="http://www.w3.org/2000/svg">
<path d="M3.75 2.14286C3.75 0.957589 2.91211 0 1.875 0C0.837891 0 0 0.957589 0 2.14286V24.6429C0 27.6027 2.09766 30 4.6875 30H28.125C29.1621 30 30 29.0424 30 27.8571C30 26.6719 29.1621 25.7143 28.125 25.7143H4.6875C4.17188 25.7143 3.75 25.2321 3.75 24.6429V2.14286ZM27.5742 7.94196C28.3066 7.10491 28.3066 5.74554 27.5742 4.90848C26.8418 4.07143 25.6523 4.07143 24.9199 4.90848L18.75 11.9665L15.3867 8.12277C14.6543 7.28571 13.4648 7.28571 12.7324 8.12277L6.16992 15.6228C5.4375 16.4598 5.4375 17.8192 6.16992 18.6562C6.90234 19.4933 8.0918 19.4933 8.82422 18.6562L14.0625 12.6763L17.4258 16.5201C18.1582 17.3571 19.3477 17.3571 20.0801 16.5201L27.5801 7.94866L27.5742 7.94196Z" fill="#1583EB"/>
</svg>
