<svg width="380" height="417" viewBox="0 0 380 417" fill="none" xmlns="http://www.w3.org/2000/svg">
<path d="M355 80C355 110.376 281.127 135 190 135C98.873 135 25 110.376 25 80M355 80C355 49.6243 281.127 25 190 25C98.873 25 25 49.6243 25 80M355 80V336.667C355 367.1 281.667 391.667 190 391.667C98.3333 391.667 25 367.1 25 336.667V80M355 208.333C355 238.767 281.667 263.333 190 263.333C98.3333 263.333 25 238.767 25 208.333" stroke="#4AA0F3" stroke-width="50" stroke-linecap="round" stroke-linejoin="round"/>
</svg>
