<svg width="29" height="31" viewBox="0 0 29 31" fill="none" xmlns="http://www.w3.org/2000/svg">
<path d="M2.125 7.25H4.875M4.875 7.25H26.875M4.875 7.25V26.5C4.875 27.2293 5.16473 27.9288 5.68046 28.4445C6.19618 28.9603 6.89565 29.25 7.625 29.25H21.375C22.1043 29.25 22.8038 28.9603 23.3195 28.4445C23.8353 27.9288 24.125 27.2293 24.125 26.5V7.25M9 7.25V4.5C9 3.77065 9.28973 3.07118 9.80546 2.55546C10.3212 2.03973 11.0207 1.75 11.75 1.75H17.25C17.9793 1.75 18.6788 2.03973 19.1945 2.55546C19.7103 3.07118 20 3.77065 20 4.5V7.25M11.75 14.125V22.375M17.25 14.125V22.375" stroke="#DB0C0C" stroke-opacity="0.8" stroke-width="3" stroke-linecap="round" stroke-linejoin="round"/>
</svg>
