<svg width="20" height="19" viewBox="0 0 20 19" fill="none" xmlns="http://www.w3.org/2000/svg">
<path d="M9.99935 17.4173C9.8049 17.4173 9.63824 17.3645 9.49935 17.259C9.36046 17.1534 9.25629 17.0149 9.18685 16.8434C8.92296 16.1045 8.58963 15.4118 8.18685 14.7652C7.79796 14.1187 7.24935 13.36 6.54102 12.4892C5.83268 11.6184 5.25629 10.7871 4.81185 9.99544C4.38129 9.20378 4.16602 8.24718 4.16602 7.12565C4.16602 5.5819 4.72852 4.27565 5.85352 3.2069C6.9924 2.12496 8.37435 1.58398 9.99935 1.58398C11.6243 1.58398 12.9993 2.12496 14.1243 3.2069C15.2632 4.27565 15.8327 5.5819 15.8327 7.12565C15.8327 8.32634 15.5896 9.32912 15.1035 10.134C14.6313 10.9256 14.0827 11.7107 13.4577 12.4892C12.7077 13.4392 12.1382 14.2309 11.7493 14.8642C11.3743 15.4843 11.0618 16.1441 10.8118 16.8434C10.7424 17.0281 10.6313 17.1732 10.4785 17.2788C10.3396 17.3711 10.1799 17.4173 9.99935 17.4173ZM9.99935 9.10482C10.5827 9.10482 11.0757 8.9135 11.4785 8.53086C11.8813 8.14822 12.0827 7.67982 12.0827 7.12565C12.0827 6.57148 11.8813 6.10308 11.4785 5.72044C11.0757 5.3378 10.5827 5.14648 9.99935 5.14648C9.41602 5.14648 8.92296 5.3378 8.52018 5.72044C8.1174 6.10308 7.91602 6.57148 7.91602 7.12565C7.91602 7.67982 8.1174 8.14822 8.52018 8.53086C8.92296 8.9135 9.41602 9.10482 9.99935 9.10482Z" fill="#1583EB"/>
</svg>
