<svg width="40" height="36" viewBox="0 0 40 36" fill="none" xmlns="http://www.w3.org/2000/svg">
<path d="M9 0C10.3261 0 11.5979 0.592632 12.5355 1.64752C13.4732 2.70242 14 4.13316 14 5.625C14 7.11684 13.4732 8.54758 12.5355 9.60248C11.5979 10.6574 10.3261 11.25 9 11.25C7.67392 11.25 6.40215 10.6574 5.46447 9.60248C4.52678 8.54758 4 7.11684 4 5.625C4 4.13316 4.52678 2.70242 5.46447 1.64752C6.40215 0.592632 7.67392 0 9 0ZM32 0C33.3261 0 34.5979 0.592632 35.5355 1.64752C36.4732 2.70242 37 4.13316 37 5.625C37 7.11684 36.4732 8.54758 35.5355 9.60248C34.5979 10.6574 33.3261 11.25 32 11.25C30.6739 11.25 29.4021 10.6574 28.4645 9.60248C27.5268 8.54758 27 7.11684 27 5.625C27 4.13316 27.5268 2.70242 28.4645 1.64752C29.4021 0.592632 30.6739 0 32 0ZM0 21.0023C0 16.8609 2.9875 13.5 6.66875 13.5H9.3375C10.3312 13.5 11.275 13.7461 12.125 14.182C12.0438 14.6883 12.0063 15.2156 12.0063 15.75C12.0063 18.4359 13.0562 20.8477 14.7125 22.5C14.7 22.5 14.6875 22.5 14.6687 22.5H1.33125C0.6 22.5 0 21.825 0 21.0023ZM25.3312 22.5C25.3187 22.5 25.3063 22.5 25.2875 22.5C26.95 20.8477 27.9937 18.4359 27.9937 15.75C27.9937 15.2156 27.95 14.6953 27.875 14.182C28.725 13.7391 29.6688 13.5 30.6625 13.5H33.3312C37.0125 13.5 40 16.8609 40 21.0023C40 21.832 39.4 22.5 38.6688 22.5H25.3312ZM14 15.75C14 13.9598 14.6321 12.2429 15.7574 10.977C16.8826 9.71116 18.4087 9 20 9C21.5913 9 23.1174 9.71116 24.2426 10.977C25.3679 12.2429 26 13.9598 26 15.75C26 17.5402 25.3679 19.2571 24.2426 20.523C23.1174 21.7888 21.5913 22.5 20 22.5C18.4087 22.5 16.8826 21.7888 15.7574 20.523C14.6321 19.2571 14 17.5402 14 15.75ZM8 34.1227C8 28.9477 11.7312 24.75 16.3312 24.75H23.6688C28.2688 24.75 32 28.9477 32 34.1227C32 35.1563 31.2562 36 30.3312 36H9.66875C8.75 36 8 35.1633 8 34.1227Z" fill="white"/>
</svg>
