<svg width="100" height="100" viewBox="0 0 100 100" fill="none" xmlns="http://www.w3.org/2000/svg">
<g clip-path="url(#clip0_922_251)">
<path d="M100 20.834V91.6673H87.5V83.334H91.6667V20.834C91.6667 18.5382 89.8 16.6673 87.5 16.6673H12.5C10.2 16.6673 8.33333 18.5382 8.33333 20.834V83.334H45.8333V91.6673H0V20.834C0 13.9423 5.60833 8.33398 12.5 8.33398H87.5C94.3917 8.33398 100 13.9423 100 20.834ZM79.1667 29.1673H20.8333V37.5006H79.1667V29.1673ZM83.3333 66.6673C83.3333 70.8548 81.7292 74.6423 79.1667 77.5756V100.001L66.6667 89.584L54.1667 100.001V77.5756C51.6042 74.6465 50 70.859 50 66.6673C50 57.4756 57.475 50.0006 66.6667 50.0006C75.8583 50.0006 83.3333 57.4756 83.3333 66.6673ZM58.3333 66.6673C58.3333 71.2631 62.0708 75.0006 66.6667 75.0006C71.2625 75.0006 75 71.2631 75 66.6673C75 62.0715 71.2625 58.334 66.6667 58.334C62.0708 58.334 58.3333 62.0715 58.3333 66.6673ZM52.8583 45.834H20.8333V54.1673H45.0375C46.975 50.8256 49.6458 47.9673 52.8583 45.834ZM20.8333 62.5006V70.834H42.0417C41.8125 69.4756 41.6667 68.0881 41.6667 66.6673C41.6667 65.2465 41.8125 63.859 42.0417 62.5006H20.8333Z" fill="#374856"/>
</g>
<defs>
<clipPath id="clip0_922_251">
<rect width="100" height="100" fill="white"/>
</clipPath>
</defs>
</svg>
