<svg width="100" height="100" viewBox="0 0 100 100" fill="none" xmlns="http://www.w3.org/2000/svg">
<g clip-path="url(#clip0_922_239)">
<path d="M79.1667 33.3333V18.0333C79.1667 14.6958 77.8667 11.5542 75.5042 9.19583L69.9708 3.6625C67.6125 1.30417 64.4708 0 61.1292 0H37.5C28.3083 0 20.8333 7.475 20.8333 16.6667V25C9.34583 25 0 34.3458 0 45.8333V79.1667C0 90.6542 9.34583 100 20.8333 100H79.1667C90.6542 100 100 90.6542 100 79.1667V54.1667C100 42.6792 90.6542 33.3333 79.1667 33.3333ZM29.1667 16.6667C29.1667 12.0708 32.9042 8.33333 37.5 8.33333H58.3333V16.6667C58.3333 18.9667 60.2 20.8333 62.5 20.8333H70.8333V33.3333H49.8833C49.2417 33.3333 48.5917 33.1833 48.0167 32.8958L34.8708 26.3208C33.1417 25.4583 31.0958 25.0042 29.1667 25.0042V16.6667ZM91.6667 79.1667C91.6667 86.0583 86.0583 91.6667 79.1667 91.6667H20.8333C13.9417 91.6667 8.33333 86.0583 8.33333 79.1667V45.8333C8.33333 38.9417 13.9417 33.3333 20.8333 33.3333H29.2833C29.925 33.3333 30.575 33.4833 31.1458 33.7708L44.2917 40.3458C46.0208 41.2083 47.95 41.6625 49.8792 41.6625H79.1625C86.0542 41.6625 91.6625 47.2708 91.6625 54.1625V79.1625L91.6667 79.1667ZM66.6667 66.6667C66.6667 68.9708 64.8 70.8333 62.5 70.8333H54.1667V79.1667C54.1667 81.4708 52.3 83.3333 50 83.3333C47.7 83.3333 45.8333 81.4708 45.8333 79.1667V70.8333H37.5C35.2 70.8333 33.3333 68.9708 33.3333 66.6667C33.3333 64.3625 35.2 62.5 37.5 62.5H45.8333V54.1667C45.8333 51.8625 47.7 50 50 50C52.3 50 54.1667 51.8625 54.1667 54.1667V62.5H62.5C64.8 62.5 66.6667 64.3625 66.6667 66.6667Z" fill="#374856"/>
</g>
<defs>
<clipPath id="clip0_922_239">
<rect width="100" height="100" fill="white"/>
</clipPath>
</defs>
</svg>
