<svg width="100" height="100" viewBox="0 0 100 100" fill="none" xmlns="http://www.w3.org/2000/svg">
<path d="M37.5 37.5C37.5 36.3949 37.939 35.3351 38.7204 34.5537C39.5018 33.7723 40.5616 33.3333 41.6667 33.3333H45.8333V29.1667C45.8333 28.0616 46.2723 27.0018 47.0537 26.2204C47.8351 25.439 48.8949 25 50 25C51.1051 25 52.1649 25.439 52.9463 26.2204C53.7277 27.0018 54.1667 28.0616 54.1667 29.1667V33.3333H58.3333C59.4384 33.3333 60.4982 33.7723 61.2796 34.5537C62.061 35.3351 62.5 36.3949 62.5 37.5C62.5 38.6051 62.061 39.6649 61.2796 40.4463C60.4982 41.2277 59.4384 41.6667 58.3333 41.6667H54.1667V45.8333C54.1667 46.9384 53.7277 47.9982 52.9463 48.7796C52.1649 49.561 51.1051 50 50 50C48.8949 50 47.8351 49.561 47.0537 48.7796C46.2723 47.9982 45.8333 46.9384 45.8333 45.8333V41.6667H41.6667C40.5616 41.6667 39.5018 41.2277 38.7204 40.4463C37.939 39.6649 37.5 38.6051 37.5 37.5ZM66.6667 58.3333H33.3333C32.2283 58.3333 31.1685 58.7723 30.3871 59.5537C29.6057 60.3351 29.1667 61.3949 29.1667 62.5C29.1667 63.6051 29.6057 64.6649 30.3871 65.4463C31.1685 66.2277 32.2283 66.6667 33.3333 66.6667H66.6667C67.7717 66.6667 68.8315 66.2277 69.6129 65.4463C70.3943 64.6649 70.8333 63.6051 70.8333 62.5C70.8333 61.3949 70.3943 60.3351 69.6129 59.5537C68.8315 58.7723 67.7717 58.3333 66.6667 58.3333ZM50 75H33.3333C32.2283 75 31.1685 75.439 30.3871 76.2204C29.6057 77.0018 29.1667 78.0616 29.1667 79.1667C29.1667 80.2717 29.6057 81.3315 30.3871 82.1129C31.1685 82.8943 32.2283 83.3333 33.3333 83.3333H50C51.1051 83.3333 52.1649 82.8943 52.9463 82.1129C53.7277 81.3315 54.1667 80.2717 54.1667 79.1667C54.1667 78.0616 53.7277 77.0018 52.9463 76.2204C52.1649 75.439 51.1051 75 50 75ZM87.5 29.1667V79.1667C87.4934 84.69 85.2963 89.9852 81.3908 93.8908C77.4852 97.7963 72.19 99.9934 66.6667 100H33.3333C27.81 99.9934 22.5148 97.7963 18.6092 93.8908C14.7037 89.9852 12.5066 84.69 12.5 79.1667V29.1667C12.5066 23.6434 14.7037 18.3482 18.6092 14.4426C22.5148 10.537 27.81 8.33995 33.3333 8.33333H34.0458C34.9108 5.89788 36.5079 3.78963 38.6183 2.29768C40.7286 0.805734 43.2489 0.00315312 45.8333 0L54.1667 0C56.7511 0.00315312 59.2714 0.805734 61.3817 2.29768C63.4921 3.78963 65.0892 5.89788 65.9542 8.33333H66.6667C72.19 8.33995 77.4852 10.537 81.3908 14.4426C85.2963 18.3482 87.4934 23.6434 87.5 29.1667ZM79.1667 29.1667C79.1667 25.8515 77.8497 22.672 75.5055 20.3278C73.1613 17.9836 69.9819 16.6667 66.6667 16.6667H62.5C61.3949 16.6667 60.3351 16.2277 59.5537 15.4463C58.7723 14.6649 58.3333 13.6051 58.3333 12.5C58.3333 11.3949 57.8943 10.3351 57.1129 9.55372C56.3315 8.77232 55.2717 8.33333 54.1667 8.33333H45.8333C44.7283 8.33333 43.6685 8.77232 42.8871 9.55372C42.1057 10.3351 41.6667 11.3949 41.6667 12.5C41.6667 13.6051 41.2277 14.6649 40.4463 15.4463C39.6649 16.2277 38.6051 16.6667 37.5 16.6667H33.3333C30.0181 16.6667 26.8387 17.9836 24.4945 20.3278C22.1503 22.672 20.8333 25.8515 20.8333 29.1667V79.1667C20.8333 82.4819 22.1503 85.6613 24.4945 88.0055C26.8387 90.3497 30.0181 91.6667 33.3333 91.6667H66.6667C69.9819 91.6667 73.1613 90.3497 75.5055 88.0055C77.8497 85.6613 79.1667 82.4819 79.1667 79.1667V29.1667Z" fill="#374856"/>
</svg>
