<svg width="100" height="100" viewBox="0 0 100 100" fill="none" xmlns="http://www.w3.org/2000/svg">
<path d="M50.0007 41.6667C41.959 41.6667 35.4173 48.2083 35.4173 56.25C35.4173 64.2917 41.959 70.8333 50.0007 70.8333C58.0423 70.8333 64.584 64.2917 64.584 56.25C64.584 48.2083 58.0423 41.6667 50.0007 41.6667ZM50.0007 62.5C46.5548 62.5 43.7506 59.6958 43.7506 56.25C43.7506 52.8042 46.5548 50 50.0007 50C53.4465 50 56.2507 52.8042 56.2507 56.25C56.2507 59.6958 53.4465 62.5 50.0007 62.5ZM83.1215 23.0667L68.6048 8.54167C63.0923 3.03333 55.7673 0 47.9798 0H29.1673C17.6798 0 8.33398 9.34583 8.33398 20.8333V79.1667C8.33398 90.6542 17.6798 100 29.1673 100H70.834C82.3215 100 91.6673 90.6542 91.6673 79.1667V43.6875C91.6673 35.8917 88.6298 28.575 83.1215 23.0667ZM77.2298 28.9625C78.5548 30.2833 79.6757 31.7542 80.584 33.3375H62.4965C60.1965 33.3375 58.3298 31.4667 58.3298 29.1708V11.0792C59.9131 11.9875 61.384 13.1083 62.709 14.4333L77.2256 28.9583L77.2298 28.9625ZM38.2173 91.6708C39.9381 86.8208 44.5673 83.3375 50.0007 83.3375C55.434 83.3375 60.0631 86.8208 61.784 91.6708H38.2173ZM83.334 79.1708C83.334 86.0625 77.7256 91.6708 70.834 91.6708H70.4131C68.4756 82.175 60.059 75.0042 50.0007 75.0042C39.9423 75.0042 31.5215 82.175 29.5881 91.6708H29.1673C22.2757 91.6708 16.6673 86.0625 16.6673 79.1708V20.8333C16.6673 13.9417 22.2757 8.33333 29.1673 8.33333H47.9798C48.659 8.33333 49.334 8.36667 50.0007 8.42917V29.1667C50.0007 36.0583 55.609 41.6667 62.5006 41.6667H83.2381C83.3006 42.3333 83.334 43.0083 83.334 43.6875V79.1708Z" fill="#374856"/>
</svg>
