<svg width="100" height="100" viewBox="0 0 100 100" fill="none" xmlns="http://www.w3.org/2000/svg">
<g clip-path="url(#clip0_922_215)">
<path d="M50.0009 0C37.7705 0.0359546 25.975 4.54078 16.8342 12.6667L11.2801 7.1125C10.6974 6.52996 9.955 6.13327 9.14687 5.97257C8.33873 5.81187 7.50109 5.89438 6.73984 6.20968C5.97859 6.52497 5.32791 7.05888 4.87006 7.74392C4.41221 8.42896 4.16774 9.23437 4.16757 10.0583V29.1667C4.16757 30.2717 4.60655 31.3315 5.38796 32.1129C6.16936 32.8943 7.22917 33.3333 8.33424 33.3333H27.4426C28.2665 33.3332 29.0719 33.0887 29.757 32.6308C30.442 32.173 30.9759 31.5223 31.2912 30.7611C31.6065 29.9998 31.689 29.1622 31.5283 28.354C31.3676 27.5459 30.9709 26.8036 30.3884 26.2208L25.6592 21.4917C31.178 16.7772 37.9463 13.7657 45.143 12.8224C52.3397 11.8792 59.6555 13.0447 66.2028 16.1776C72.7501 19.3106 78.2475 24.2762 82.028 30.4722C85.8086 36.6681 87.7097 43.8281 87.5009 51.0833C87.2329 60.4578 83.462 69.3915 76.9319 76.1228C70.4019 82.854 61.5867 86.8942 52.2247 87.4465C42.8627 87.9988 33.6336 85.0232 26.3573 79.1064C19.0811 73.1896 14.286 64.7612 12.9176 55.4833C12.7222 53.9748 11.9869 52.5881 10.8477 51.58C9.70863 50.5719 8.24285 50.0106 6.72174 50C5.83909 49.9886 4.96417 50.1657 4.15542 50.5194C3.34668 50.8732 2.62273 51.3954 2.03194 52.0513C1.44115 52.7072 0.99711 53.4815 0.729494 54.3227C0.461877 55.1639 0.376842 56.0525 0.480068 56.9292C2.21428 69.204 8.44002 80.3993 17.9526 88.3486C27.4651 96.2979 39.5882 100.436 51.9759 99.9625C64.5081 99.3587 76.3662 94.1091 85.2381 85.2372C94.11 76.3653 99.3596 64.5072 99.9634 51.975C100.222 45.2497 99.121 38.5413 96.7272 32.2511C94.3334 25.9609 90.6957 20.2181 86.0315 15.366C81.3673 10.514 75.7725 6.65237 69.5817 4.01217C63.3909 1.37196 56.7312 0.00736787 50.0009 0Z" fill="#374856"/>
<path d="M47.916 29.166C46.2584 29.166 44.6687 29.8245 43.4966 30.9966C42.3245 32.1687 41.666 33.7584 41.666 35.416V53.3035C41.6665 55.5135 42.5448 57.6327 44.1077 59.1952L51.5785 66.666C52.7573 67.8045 54.336 68.4345 55.9748 68.4202C57.6135 68.406 59.1811 67.7487 60.3399 66.5899C61.4987 65.4311 62.156 63.8635 62.1702 62.2248C62.1845 60.586 61.5545 59.0073 60.416 57.8285L54.166 51.5785V35.416C54.166 33.7584 53.5075 32.1687 52.3354 30.9966C51.1633 29.8245 49.5736 29.166 47.916 29.166Z" fill="#374856"/>
</g>
<defs>
<clipPath id="clip0_922_215">
<rect width="100" height="100" fill="white"/>
</clipPath>
</defs>
</svg>
