<svg width="76" height="100" viewBox="0 0 76 100" fill="none" xmlns="http://www.w3.org/2000/svg">
<path d="M25.5 37.5C25.5 36.3949 25.939 35.3351 26.7204 34.5537C27.5018 33.7723 28.5616 33.3333 29.6667 33.3333H33.8333V29.1667C33.8333 28.0616 34.2723 27.0018 35.0537 26.2204C35.8351 25.439 36.8949 25 38 25C39.1051 25 40.1649 25.439 40.9463 26.2204C41.7277 27.0018 42.1667 28.0616 42.1667 29.1667V33.3333H46.3333C47.4384 33.3333 48.4982 33.7723 49.2796 34.5537C50.061 35.3351 50.5 36.3949 50.5 37.5C50.5 38.6051 50.061 39.6649 49.2796 40.4463C48.4982 41.2277 47.4384 41.6667 46.3333 41.6667H42.1667V45.8333C42.1667 46.9384 41.7277 47.9982 40.9463 48.7796C40.1649 49.561 39.1051 50 38 50C36.8949 50 35.8351 49.561 35.0537 48.7796C34.2723 47.9982 33.8333 46.9384 33.8333 45.8333V41.6667H29.6667C28.5616 41.6667 27.5018 41.2277 26.7204 40.4463C25.939 39.6649 25.5 38.6051 25.5 37.5ZM54.6667 58.3333H21.3333C20.2283 58.3333 19.1685 58.7723 18.3871 59.5537C17.6057 60.3351 17.1667 61.3949 17.1667 62.5C17.1667 63.6051 17.6057 64.6649 18.3871 65.4463C19.1685 66.2277 20.2283 66.6667 21.3333 66.6667H54.6667C55.7717 66.6667 56.8315 66.2277 57.6129 65.4463C58.3943 64.6649 58.8333 63.6051 58.8333 62.5C58.8333 61.3949 58.3943 60.3351 57.6129 59.5537C56.8315 58.7723 55.7717 58.3333 54.6667 58.3333ZM38 75H21.3333C20.2283 75 19.1685 75.439 18.3871 76.2204C17.6057 77.0018 17.1667 78.0616 17.1667 79.1667C17.1667 80.2717 17.6057 81.3315 18.3871 82.1129C19.1685 82.8943 20.2283 83.3333 21.3333 83.3333H38C39.1051 83.3333 40.1649 82.8943 40.9463 82.1129C41.7277 81.3315 42.1667 80.2717 42.1667 79.1667C42.1667 78.0616 41.7277 77.0018 40.9463 76.2204C40.1649 75.439 39.1051 75 38 75ZM75.5 29.1667V79.1667C75.4934 84.69 73.2963 89.9852 69.3908 93.8908C65.4852 97.7963 60.19 99.9934 54.6667 100H21.3333C15.81 99.9934 10.5148 97.7963 6.60925 93.8908C2.70367 89.9852 0.506616 84.69 0.5 79.1667V29.1667C0.506616 23.6434 2.70367 18.3482 6.60925 14.4426C10.5148 10.537 15.81 8.33995 21.3333 8.33333H22.0458C22.9108 5.89788 24.5079 3.78963 26.6183 2.29768C28.7286 0.805734 31.2489 0.00315312 33.8333 0L42.1667 0C44.7511 0.00315312 47.2714 0.805734 49.3817 2.29768C51.4921 3.78963 53.0892 5.89788 53.9542 8.33333H54.6667C60.19 8.33995 65.4852 10.537 69.3908 14.4426C73.2963 18.3482 75.4934 23.6434 75.5 29.1667ZM67.1667 29.1667C67.1667 25.8515 65.8497 22.672 63.5055 20.3278C61.1613 17.9836 57.9819 16.6667 54.6667 16.6667H50.5C49.3949 16.6667 48.3351 16.2277 47.5537 15.4463C46.7723 14.6649 46.3333 13.6051 46.3333 12.5C46.3333 11.3949 45.8943 10.3351 45.1129 9.55372C44.3315 8.77232 43.2717 8.33333 42.1667 8.33333H33.8333C32.7283 8.33333 31.6685 8.77232 30.8871 9.55372C30.1057 10.3351 29.6667 11.3949 29.6667 12.5C29.6667 13.6051 29.2277 14.6649 28.4463 15.4463C27.6649 16.2277 26.6051 16.6667 25.5 16.6667H21.3333C18.0181 16.6667 14.8387 17.9836 12.4945 20.3278C10.1503 22.672 8.83333 25.8515 8.83333 29.1667V79.1667C8.83333 82.4819 10.1503 85.6613 12.4945 88.0055C14.8387 90.3497 18.0181 91.6667 21.3333 91.6667H54.6667C57.9819 91.6667 61.1613 90.3497 63.5055 88.0055C65.8497 85.6613 67.1667 82.4819 67.1667 79.1667V29.1667Z" fill="#4366CF"/>
</svg>
